{
	"asset": {
		"generator": "Blocks",
		"version": "105",
		"copyright": "Unknown"
	},
	"buffers": {
		"model": {
			"byteLength": 315680,
			"type": "arraybuffer",
			"uri": "model.bin"
		}
	},
	"accessors": {
		"accessor_position_m0-PolyPaper18_-142816": {
			"bufferView": "vec3BufferView",
			"byteOffset": 0,
			"byteStride": 12,
			"componentType": 5126,
			"count": 7376,
			"max": [ 1.133719, 4.861767, -0.08254867 ],
			"min": [ -3.707524, -0.03704291, -1.746476 ],
			"type": "VEC3"
		 },
		"accessor_normal_m0-PolyPaper18_-142816": {
			"bufferView": "vec3BufferView",
			"byteOffset": 88512,
			"byteStride": 12,
			"componentType": 5126,
			"count": 7376,
			"max": [ 0.9987947, 0.9999989, 0.998506 ],
			"min": [ -0.9987947, -0.9999503, -0.9966897 ],
			"type": "VEC3"
		 },
		"accessor_color_m0-PolyPaper18_-142816": {
			"bufferView": "vec4BufferView",
			"byteOffset": 0,
			"byteStride": 16,
			"componentType": 5126,
			"count": 7376,
			"max": [ 1, 1, 1, 1 ],
			"min": [ 0.1019608, 0.1019608, 0.1019608, 1 ],
			"type": "VEC4"
		 },
		"accessor_indices_0_m0-PolyPaper18_-142816": {
			"bufferView": "ushortBufferView",
			"byteOffset": 0,
			"byteStride": 0,
			"componentType": 5123,
			"count": 10320,
			"max": [ 7375 ],
			"min": [ 0 ],
			"type": "SCALAR"
		 }
	},
	"bufferViews": {
		"ushortBufferView": {
			"buffer": "model",
			"byteLength": 20640,
			"byteOffset": 0,
			"target": 34963
		},
		"vec3BufferView": {
			"buffer": "model",
			"byteLength": 177024,
			"byteOffset": 20640,
			"target": 34962
		},
		"vec4BufferView": {
			"buffer": "model",
			"byteLength": 118016,
			"byteOffset": 197664,
			"target": 34962
		}
	},
	"meshes": {
		"mesh_m0-PolyPaper18_-142816": {
			"name": "mesh_m0-PolyPaper18_-142816",
			"primitives": [
				{
					"attributes": {
						"POSITION": "accessor_position_m0-PolyPaper18_-142816",
						"NORMAL": "accessor_normal_m0-PolyPaper18_-142816",
						"COLOR": "accessor_color_m0-PolyPaper18_-142816"
					},
					"indices": "accessor_indices_0_m0-PolyPaper18_-142816",
					"material": "material_mat18",
					"mode": 4
				}
			]
		}
	},
	"shaders": {
		"vertex_mat18": {
			"type": 35633,
			"uri": "https://vr.google.com/shaders/w/vs.glsl"
		},
		"fragment_mat18": {
			"type": 35632,
			"uri": "https://vr.google.com/shaders/w/fs.glsl"
		}
	},
	"programs": {
		"program_mat18": {
			"attributes": [
				"a_position",
				"a_normal",
				"a_color"				
			],
			"vertexShader": "vertex_mat18",
			"fragmentShader": "fragment_mat18"
		}
	},
	"techniques": {
		"technique_mat18": {
			"program": "program_mat18",
			"extras": {"gvrss" : "https://vr.google.com/shaders/w/gvrss/paper.json"},
			"parameters": {
				"position": {
					"type": 35665,
					"semantic": "POSITION"
				},
				"normal": {
					"type": 35665,
					"semantic": "NORMAL"
				},
				"color": {
					"type": 35666,
					"semantic": "COLOR"
				},
				"modelViewMatrix": {
					"type": 35676,
					"semantic": "MODELVIEW"
				},
				"projectionMatrix": {
					"type": 35676,
					"semantic": "PROJECTION"
				},
				"normalMatrix": {
					"type": 35675,
					"semantic": "MODELVIEWINVERSETRANSPOSE"
				},
				"color": {
					"type": 35666
				},
				"roughness": {
					"type": 5126
				},
				"metallic": {
					"type": 5126
				},
				"light0Pos": {
					"type": 35666
				},
				"light0Color": {
					"type": 35666
				},
				"light1Pos": {
					"type": 35666
				},
				"light1Color": {
					"type": 35666
				}				
			},
			"attributes": {
				"a_position": "position",
				"a_normal": "normal",
				"a_color": "color"				
			},
			"uniforms": {
				"u_modelViewMatrix": "modelViewMatrix",
				"u_projectionMatrix": "projectionMatrix",
				"u_normalMatrix": "normalMatrix",
				"u_color": "color",
				"u_roughness": "roughness",
				"u_metallic": "metallic",
				"u_light0Pos": "light0Pos",
				"u_light0Color": "light0Color",
				"u_light1Pos": "light1Pos",
				"u_light1Color": "light1Color"				
			},
			"states": {
				"enable": [
					2929,
					2884
				],
				"functions": {
					"cullFace": [1029]
				}
			}
		}
	},
	"materials": {
		"material_mat18": {
			"technique": "technique_mat18",
			"values": {
				"color": [1, 0.8, 0.5333334, 1],
				"roughness": 0.72,
				"metallic": 0,
				"light0Pos": [-0.02, 4.11, -0.54, 0],
				"light0Color": [0.8, 0.8, 0.8, 0],
				"light1Pos": [0.02, -4.11, 0.54, 0],
				"light1Color": [0.64, 0.5647059, 0.5647059, 0]				
			},
			"name": "material_mat18"
		}
	},
	"nodes": {
		"node_MeshObject-343695872-PolyPaper18": {
			"name": "node_MeshObject-343695872-PolyPaper18",
			"meshes": [
				"mesh_m0-PolyPaper18_-142816"
			],
			"matrix": [1, 0, 0, 0, 0, 1, 0, 0, 0, 0, 1, 0, 0, 0, 0, 1]
		}
	},
	"scene": "defaultScene",
	"scenes": {
		"defaultScene": {
			"nodes": [
				"node_MeshObject-343695872-PolyPaper18"
			],
			"extras": {

			}
		}
	}
}