# 3ds Max Wavefront OBJ Exporter v0.97b - (c)2007 guruware
# File Created: 24.08.2016 16:50:49

mtllib WoodLog.mtl

#
# object WoodLog
#

v  0.5104 -0.0915 -0.0915
v  0.5104 -0.1294 -0.0000
v  -0.5155 -0.1294 -0.0000
v  -0.5155 -0.0915 -0.0915
v  0.5104 0.0915 0.0915
v  0.5104 0.1294 -0.0000
v  -0.5155 0.1294 -0.0000
v  -0.5155 0.0915 0.0915
v  0.5104 -0.0915 0.0915
v  -0.5155 -0.0915 0.0915
v  0.5104 0.0915 -0.0915
v  -0.5155 0.0915 -0.0915
v  -0.5155 0.0000 0.1294
v  -0.5155 0.0000 -0.0000
v  0.5104 0.0000 0.1294
v  0.5104 0.0000 -0.0000
v  0.5104 0.0000 -0.1294
v  -0.5155 0.0000 -0.1294
v  0.3191 -0.0915 -0.3835
v  0.3191 -0.1294 -0.2920
v  -0.7068 -0.1294 -0.2920
v  -0.7068 -0.0915 -0.3835
v  0.3191 0.0915 -0.2005
v  0.3191 0.1294 -0.2920
v  -0.7068 0.1294 -0.2920
v  -0.7068 0.0915 -0.2005
v  0.3191 -0.0915 -0.2005
v  -0.7068 -0.0915 -0.2005
v  0.3191 0.0915 -0.3835
v  -0.7068 0.0915 -0.3835
v  -0.7068 0.0000 -0.1626
v  -0.7068 0.0000 -0.2920
v  0.3191 0.0000 -0.1626
v  0.3191 0.0000 -0.2920
v  0.3191 0.0000 -0.4214
v  -0.7068 0.0000 -0.4214
v  0.1971 -0.1007 0.3450
v  0.1768 -0.1348 0.4357
v  -0.8272 -0.0720 0.2346
v  -0.8069 -0.0380 0.1438
v  0.1741 0.0893 0.5192
v  0.1944 0.1233 0.4285
v  -0.8096 0.1861 0.2273
v  -0.8299 0.1520 0.3180
v  0.1617 -0.0933 0.5244
v  -0.8423 -0.0305 0.3232
v  0.2096 0.0818 0.3398
v  -0.7944 0.1446 0.1387
v  -0.8435 0.0623 0.3578
v  -0.8184 0.0570 0.2309
v  0.1605 -0.0005 0.5589
v  0.1856 -0.0057 0.4321
v  0.2107 -0.0110 0.3053
v  -0.7933 0.0517 0.1041
v  0.1771 0.3622 -0.2103
v  0.2650 0.3342 -0.1742
v  -0.1947 -0.0118 0.6752
v  -0.2826 0.0162 0.6390
v  0.2916 0.5489 -0.0723
v  0.2037 0.5769 -0.1084
v  -0.2560 0.2309 0.7409
v  -0.1681 0.2029 0.7770
v  0.3349 0.3773 -0.1188
v  -0.1248 0.0312 0.7305
v  0.1338 0.5339 -0.1638
v  -0.3259 0.1878 0.6855
v  -0.1138 0.1202 0.7727
v  -0.2253 0.1095 0.7080
v  0.3459 0.4662 -0.0766
v  0.2344 0.4556 -0.1413
v  0.1228 0.4449 -0.2060
v  -0.3369 0.0989 0.6433
v  0.4281 0.2242 0.1316
v  0.4110 0.1285 0.1505
v  -0.3244 0.1177 -0.5646
v  -0.3074 0.2134 -0.5836
v  0.2495 0.1900 0.3157
v  0.2665 0.2857 0.2968
v  -0.4689 0.2750 -0.4184
v  -0.4860 0.1793 -0.3994
v  0.3516 0.0788 0.2124
v  -0.3838 0.0681 -0.5028
v  0.3259 0.3354 0.2350
v  -0.4095 0.3246 -0.4802
v  -0.4507 0.0936 -0.4344
v  -0.3967 0.1964 -0.4915
v  0.2847 0.1043 0.2808
v  0.3388 0.2071 0.2237
v  0.3928 0.3099 0.1665
v  -0.3426 0.2991 -0.5487
v  -0.5433 0.0130 -0.2938
v  -0.5555 0.0975 -0.3440
v  0.2475 0.5056 0.1470
v  0.2597 0.4211 0.1972
v  -0.7014 0.1782 -0.1726
v  -0.6891 0.0937 -0.1224
v  0.1139 0.5018 0.3687
v  0.1016 0.5863 0.3185
v  -0.6069 0.1809 -0.3293
v  0.1961 0.5890 0.1617
v  -0.6377 0.0103 -0.1371
v  0.1653 0.4184 0.3539
v  0.1357 0.6224 0.2328
v  0.1807 0.5037 0.2578
v  -0.6673 0.2143 -0.2583
v  -0.6223 0.0956 -0.2332
v  -0.5773 -0.0231 -0.2081
v  0.2257 0.3850 0.2829
v  -0.6704 -0.1348 0.3776
v  -0.7397 -0.0660 0.3935
v  -0.1146 0.6523 0.0118
v  -0.0452 0.5834 -0.0041
v  -0.6509 -0.0271 0.6121
v  -0.5816 -0.0959 0.5962
v  0.0436 0.6223 0.2144
v  -0.0258 0.6912 0.2304
v  -0.7628 -0.0059 0.4688
v  -0.1376 0.7124 0.0871
v  -0.5585 -0.1560 0.5209
v  0.0666 0.5622 0.1391
v  -0.1009 0.7285 0.1776
v  -0.0355 0.6373 0.1131
v  -0.7260 0.0102 0.5594
v  -0.6607 -0.0809 0.4949
v  -0.5953 -0.1721 0.4304
v  0.0299 0.5461 0.0486
# 126 vertices

vn 0.6303 -0.5490 -0.5490
vn 0.6303 -0.7764 -0.0000
vn -0.6303 -0.7764 -0.0000
vn -0.6303 -0.5490 -0.5490
vn 0.6303 0.5490 0.5490
vn 0.6303 0.7764 -0.0000
vn -0.6303 0.7764 -0.0000
vn -0.6303 0.5490 0.5490
vn 0.6303 -0.5490 0.5490
vn -0.6303 -0.5490 0.5490
vn 0.6303 0.5490 -0.5490
vn -0.6303 0.5490 -0.5490
vn -0.6303 0.0000 0.7764
vn -1.0000 0.0000 -0.0000
vn 0.6303 0.0000 0.7764
vn 1.0000 0.0000 -0.0000
vn 0.6303 0.0000 -0.7764
vn -0.6303 0.0000 -0.7764
vn 0.6303 -0.7764 0.0000
vn -0.6303 -0.7764 0.0000
vn 0.6303 0.7764 0.0000
vn -0.6303 0.7764 0.0000
vn -0.6303 -0.0000 -0.7764
vn 0.6859 -0.6085 -0.3991
vn 0.5640 -0.8128 0.1455
vn -0.6696 -0.7357 -0.1017
vn -0.5477 -0.5314 -0.6462
vn 0.5477 0.5314 0.6462
vn 0.6696 0.7357 0.1017
vn -0.5640 0.8128 -0.1455
vn -0.6859 0.6085 0.3991
vn 0.4731 -0.5636 0.6772
vn -0.7606 -0.4865 0.4300
vn 0.7606 0.4865 -0.4300
vn -0.4731 0.5636 -0.6772
vn -0.7673 0.0703 0.6374
vn -0.9787 0.0612 -0.1961
vn 0.4663 -0.0068 0.8846
vn 0.9787 -0.0612 0.1961
vn 0.7673 -0.0703 -0.6374
vn -0.4663 0.0068 -0.8846
vn -0.0609 -0.3473 -0.9358
vn 0.4662 -0.5155 -0.7190
vn -0.0986 -0.9407 0.3246
vn -0.6257 -0.7725 0.1078
vn 0.6257 0.7725 -0.1078
vn 0.0986 0.9407 -0.3246
vn -0.4662 0.5155 0.7190
vn 0.0609 0.3473 0.9358
vn 0.8856 -0.2571 -0.3867
vn 0.3208 -0.6823 0.6569
vn -0.3208 0.6823 -0.6569
vn -0.8856 0.2571 0.3867
vn 0.3869 -0.1488 0.9100
vn -0.4481 -0.3373 0.8279
vn 0.9517 0.2764 -0.1335
vn 0.4481 0.3373 -0.8279
vn -0.3869 0.1488 -0.9100
vn -0.9517 -0.2764 0.1335
vn 0.9876 0.1090 -0.1131
vn 0.8852 -0.4652 0.0008
vn -0.0184 -0.4784 -0.8780
vn 0.0840 0.0958 -0.9919
vn -0.0840 -0.0958 0.9919
vn 0.0184 0.4784 0.8780
vn -0.8852 0.4652 -0.0008
vn -0.9876 -0.1090 0.1131
vn 0.5290 -0.7630 0.3716
vn -0.3746 -0.7762 -0.5072
vn 0.3746 0.7762 0.5072
vn -0.5290 0.7630 -0.3716
vn -0.7761 -0.6232 -0.0967
vn -0.7169 -0.0105 -0.6971
vn 0.1275 -0.6100 0.7821
vn 0.7169 0.0105 0.6971
vn 0.7761 0.6232 0.0967
vn -0.1275 0.6100 -0.7821
vn -0.0191 -0.7462 -0.6654
vn -0.0926 -0.2393 -0.9665
vn 0.8941 0.2622 -0.3632
vn 0.9676 -0.2448 -0.0621
vn -0.9676 0.2448 0.0621
vn -0.8941 -0.2622 0.3632
vn 0.0926 0.2393 0.9665
vn 0.0191 0.7462 0.6654
vn -0.4008 0.2610 -0.8782
vn 0.5858 0.7624 -0.2748
vn -0.5858 -0.7624 0.2748
vn 0.4008 -0.2610 0.8782
vn 0.2234 0.9629 0.1512
vn 0.7827 0.3978 0.4786
vn -0.7633 0.4615 -0.4521
vn -0.7827 -0.3978 -0.4786
vn -0.2234 -0.9629 -0.1512
vn 0.7633 -0.4615 0.4521
vn -0.4423 -0.7645 -0.4690
vn -0.8586 -0.3514 -0.3734
vn -0.0904 0.5312 -0.8424
vn 0.3258 0.1180 -0.9380
vn -0.3258 -0.1180 0.9380
vn 0.0904 -0.5312 0.8424
vn 0.8586 0.3514 0.3734
vn 0.4423 0.7645 0.4690
vn -0.9969 0.0091 0.0783
vn -0.2287 0.8916 -0.3907
vn 0.2287 -0.8916 0.3907
vn 0.9969 -0.0091 -0.0783
vn -0.0081 0.9883 0.1525
vn 0.6094 0.7001 -0.3721
vn -0.7762 0.1057 0.6215
vn -0.6094 -0.7001 0.3721
vn 0.0081 -0.9883 -0.1525
vn 0.7762 -0.1058 -0.6215
# 113 vertex normals

vt 0.0918 0.0019 0.0000
vt 0.1820 0.0088 0.0000
vt 0.0915 0.9384 0.0000
vt 0.0019 0.9281 0.0000
vt 0.4520 0.0336 0.0000
vt 0.5418 0.0426 0.0000
vt 0.4506 0.9750 0.0000
vt 0.3607 0.9664 0.0000
vt 0.2720 0.0166 0.0000
vt 0.1811 0.9481 0.0000
vt 0.6315 0.0519 0.0000
vt 0.5406 0.9834 0.0000
vt 0.7381 0.8553 0.0000
vt 0.7727 0.7719 0.0000
vt 0.8561 0.8553 0.0000
vt 0.7727 0.9387 0.0000
vt 0.3620 0.0250 0.0000
vt 0.2708 0.9574 0.0000
vt 0.8788 0.6192 0.0000
vt 0.7954 0.5358 0.0000
vt 0.8788 0.5012 0.0000
vt 0.9623 0.5358 0.0000
vt 0.7954 0.7026 0.0000
vt 0.7609 0.6192 0.0000
vt 0.6307 0.9912 0.0000
vt 0.7212 0.0616 0.0000
vt 0.8561 0.9733 0.0000
vt 0.9395 0.9387 0.0000
vt 0.9395 0.7719 0.0000
vt 0.9741 0.8553 0.0000
vt 0.8561 0.7373 0.0000
vt 0.7209 0.9980 0.0000
vt 0.8107 0.0719 0.0000
vt 0.9968 0.6192 0.0000
vt 0.9623 0.7026 0.0000
vt 0.8788 0.7372 0.0000
# 36 texture coords

g WoodLog
usemtl defaultMat
s 1
f 1/1/1 2/2/2 3/3/3 4/4/4 
f 5/5/5 6/6/6 7/7/7 8/8/8 
f 2/2/2 9/9/9 10/10/10 3/3/3 
f 6/6/6 11/11/11 12/12/12 7/7/7 
f 10/13/10 13/14/13 14/15/14 3/16/3 
f 15/17/15 5/5/5 8/8/8 13/18/13 
f 16/19/16 6/20/6 5/21/5 15/22/15 
f 16/19/16 17/23/17 11/24/11 6/20/6 
f 18/25/18 12/12/12 11/11/11 17/26/17 
f 4/27/4 3/16/3 14/15/14 18/28/18 
f 14/15/14 7/29/7 12/30/12 18/28/18 
f 14/15/14 13/14/13 8/31/8 7/29/7 
f 4/32/4 18/25/18 17/26/17 1/33/1 
f 9/9/9 15/17/15 13/18/13 10/10/10 
f 9/34/9 2/35/2 16/19/16 15/22/15 
f 1/36/1 17/23/17 16/19/16 2/35/2 
f 19/1/1 20/2/19 21/3/20 22/4/4 
f 23/5/5 24/6/21 25/7/22 26/8/8 
f 20/2/19 27/9/9 28/10/10 21/3/20 
f 24/6/21 29/11/11 30/12/12 25/7/22 
f 28/13/10 31/14/13 32/15/14 21/16/20 
f 33/17/15 23/5/5 26/8/8 31/18/13 
f 34/19/16 24/20/21 23/21/5 33/22/15 
f 34/19/16 35/23/17 29/24/11 24/20/21 
f 36/25/23 30/12/12 29/11/11 35/26/17 
f 22/27/4 21/16/20 32/15/14 36/28/23 
f 32/15/14 25/29/22 30/30/12 36/28/23 
f 32/15/14 31/14/13 26/31/8 25/29/22 
f 22/32/4 36/25/23 35/26/17 19/33/1 
f 27/9/9 33/17/15 31/18/13 28/10/10 
f 27/34/9 20/35/19 34/19/16 33/22/15 
f 19/36/1 35/23/17 34/19/16 20/35/19 
f 37/1/24 38/2/25 39/3/26 40/4/27 
f 41/5/28 42/6/29 43/7/30 44/8/31 
f 38/2/25 45/9/32 46/10/33 39/3/26 
f 42/6/29 47/11/34 48/12/35 43/7/30 
f 46/13/33 49/14/36 50/15/37 39/16/26 
f 51/17/38 41/5/28 44/8/31 49/18/36 
f 52/19/39 42/20/29 41/21/28 51/22/38 
f 52/19/39 53/23/40 47/24/34 42/20/29 
f 54/25/41 48/12/35 47/11/34 53/26/40 
f 40/27/27 39/16/26 50/15/37 54/28/41 
f 50/15/37 43/29/30 48/30/35 54/28/41 
f 50/15/37 49/14/36 44/31/31 43/29/30 
f 40/32/27 54/25/41 53/26/40 37/33/24 
f 45/9/32 51/17/38 49/18/36 46/10/33 
f 45/34/32 38/35/25 52/19/39 51/22/38 
f 37/36/24 53/23/40 52/19/39 38/35/25 
f 55/1/42 56/2/43 57/3/44 58/4/45 
f 59/5/46 60/6/47 61/7/48 62/8/49 
f 56/2/43 63/9/50 64/10/51 57/3/44 
f 60/6/47 65/11/52 66/12/53 61/7/48 
f 64/13/51 67/14/54 68/15/55 57/16/44 
f 69/17/56 59/5/46 62/8/49 67/18/54 
f 70/19/57 60/20/47 59/21/46 69/22/56 
f 70/19/57 71/23/58 65/24/52 60/20/47 
f 72/25/59 66/12/53 65/11/52 71/26/58 
f 58/27/45 57/16/44 68/15/55 72/28/59 
f 68/15/55 61/29/48 66/30/53 72/28/59 
f 68/15/55 67/14/54 62/31/49 61/29/48 
f 58/32/45 72/25/59 71/26/58 55/33/42 
f 63/9/50 69/17/56 67/18/54 64/10/51 
f 63/34/50 56/35/43 70/19/57 69/22/56 
f 55/36/42 71/23/58 70/19/57 56/35/43 
f 73/1/60 74/2/61 75/3/62 76/4/63 
f 77/5/64 78/6/65 79/7/66 80/8/67 
f 74/2/61 81/9/68 82/10/69 75/3/62 
f 78/6/65 83/11/70 84/12/71 79/7/66 
f 82/13/69 85/14/72 86/15/73 75/16/62 
f 87/17/74 77/5/64 80/8/67 85/18/72 
f 88/19/75 78/20/65 77/21/64 87/22/74 
f 88/19/75 89/23/76 83/24/70 78/20/65 
f 90/25/77 84/12/71 83/11/70 89/26/76 
f 76/27/63 75/16/62 86/15/73 90/28/77 
f 86/15/73 79/29/66 84/30/71 90/28/77 
f 86/15/73 85/14/72 80/31/67 79/29/66 
f 76/32/63 90/25/77 89/26/76 73/33/60 
f 81/9/68 87/17/74 85/18/72 82/10/69 
f 81/34/68 74/35/61 88/19/75 87/22/74 
f 73/36/60 89/23/76 88/19/75 74/35/61 
f 91/1/78 92/2/79 93/3/80 94/4/81 
f 95/5/82 96/6/83 97/7/84 98/8/85 
f 92/2/79 99/9/86 100/10/87 93/3/80 
f 96/6/83 101/11/88 102/12/89 97/7/84 
f 100/13/87 103/14/90 104/15/91 93/16/80 
f 105/17/92 95/5/82 98/8/85 103/18/90 
f 106/19/93 96/20/83 95/21/82 105/22/92 
f 106/19/93 107/23/94 101/24/88 96/20/83 
f 108/25/95 102/12/89 101/11/88 107/26/94 
f 94/27/81 93/16/80 104/15/91 108/28/95 
f 104/15/91 97/29/84 102/30/89 108/28/95 
f 104/15/91 103/14/90 98/31/85 97/29/84 
f 94/32/81 108/25/95 107/26/94 91/33/78 
f 99/9/86 105/17/92 103/18/90 100/10/87 
f 99/34/86 92/35/79 106/19/93 105/22/92 
f 91/36/78 107/23/94 106/19/93 92/35/79 
f 109/1/96 110/2/97 111/3/98 112/4/99 
f 113/5/100 114/6/101 115/7/102 116/8/103 
f 110/2/97 117/9/104 118/10/105 111/3/98 
f 114/6/101 119/11/106 120/12/107 115/7/102 
f 118/13/105 121/14/108 122/15/109 111/16/98 
f 123/17/110 113/5/100 116/8/103 121/18/108 
f 124/19/111 114/20/101 113/21/100 123/22/110 
f 124/19/111 125/23/112 119/24/106 114/20/101 
f 126/25/113 120/12/107 119/11/106 125/26/112 
f 112/27/99 111/16/98 122/15/109 126/28/113 
f 122/15/109 115/29/102 120/30/107 126/28/113 
f 122/15/109 121/14/108 116/31/103 115/29/102 
f 112/32/99 126/25/113 125/26/112 109/33/96 
f 117/9/104 123/17/110 121/18/108 118/10/105 
f 117/34/104 110/35/97 124/19/111 123/22/110 
f 109/36/96 125/23/112 124/19/111 110/35/97 
# 112 polygons

