# Wavefront Obj file
# 
# verts: 62 uv-s: 120
mtllib cave_rock_2.001.mtl

g RetopoGroup2

v 9.326061 38.452446 41.515648
v 29.254475 42.326027 38.928162
v 86.096939 -47.911980 54.342564
v 68.304604 15.734424 48.693390
v 36.850887 24.359869 46.250000
v 65.977348 -47.774799 -37.623341
v 49.544025 3.852733 -9.942784
v 84.192436 -47.388081 11.001122
v 62.713768 8.404143 15.401075
v 82.144905 -46.824837 -35.595081
v 58.901505 3.405800 -7.300158
v 88.113922 -48.466816 100.243126
v -19.150764 -47.812283 -48.767017
v -15.813314 13.518266 -27.894663
v 10.086502 -47.926262 -48.775841
v 5.990760 14.649588 -28.902969
v 71.646255 20.115732 68.592201
v -9.752064 104.092590 29.413618
v -10.760824 103.572273 18.662191
v -13.384775 101.488472 8.616024
v -15.139244 98.311996 0.836704
v -2.208258 99.206436 -2.551605
v -0.492050 101.835983 5.930787
v 1.429111 103.809517 16.269634
v 2.907625 104.176018 27.339725
v 22.267159 28.364210 70.699799
v 50.585655 13.908916 14.868296
v 44.308945 39.331898 18.531807
v 29.542881 29.920612 62.947582
v 41.422989 -48.808655 85.268463
v 25.879606 43.394890 57.411568
v 18.590343 42.127792 63.814476
v 35.351662 -48.525658 100.349632
v -44.918587 -47.417747 52.240559
v -24.657349 28.835741 42.748817
v -22.459438 100.238007 10.844339
v 11.646418 99.958031 4.082229
v -20.093494 103.351608 20.500484
v 12.551716 101.534920 14.568014
v -38.659527 12.332870 -26.838160
v 31.005590 15.947503 -30.059753
v -49.652611 -48.161842 50.383804
v -56.700893 -47.881241 45.721703
v -77.995605 -47.542854 28.083782
v -72.861122 4.276037 9.939193
v -63.339577 4.277359 -14.552108
v -58.173527 -47.850967 -26.326427
v -53.052505 -47.492455 -30.424730
v -43.974602 12.583565 -15.794785
v -38.344902 22.637774 31.802578
v -36.150944 24.371902 41.817928
v -17.691496 105.170250 30.602404
v 13.524991 102.605347 25.803108
v 33.297070 40.497711 42.182480
v 29.280943 36.919815 8.935225
v 36.180088 11.076492 5.162904
v 36.888626 4.457183 -13.516768
v 50.773930 -48.668102 -39.530647
v 46.475029 -48.068127 -48.786816
v -48.833340 -47.696564 -48.758064
v -24.340193 97.766151 3.167436
v 10.888161 98.867538 -4.685014
# 62 positions

vt 0.799673 0.454022
vt 0.869831 0.598056
vt 0.848506 0.622332
vt 0.795566 0.567202
vt 0.088245 0.263591
vt 0.201425 0.295619
vt 0.180049 0.514508
vt 0.137887 0.514230
vt 0.049967 0.248724
vt 0.111445 0.517819
vt 0.759206 0.066884
vt 0.753430 0.033528
vt 0.484335 0.070881
vt 0.490392 0.104525
vt 0.610112 0.283507
vt 0.928173 0.342119
vt 0.933424 0.377042
vt 0.718227 0.358282
vt 0.648380 0.228411
vt 0.924541 0.312920
vt 0.736232 0.458172
vt 0.936989 0.414459
vt 0.267796 0.308519
vt 0.215410 0.509277
vt 0.797787 0.647036
vt 0.786948 0.633572
vt 0.175515 0.522228
vt 0.189551 0.573021
vt 0.354657 0.553841
vt 0.719019 0.683710
vt 0.687058 0.633660
vt 0.218819 0.753686
vt 0.233411 0.819958
vt 0.005000 0.925370
vt 0.006848 0.772500
vt 0.876635 0.749289
vt 0.932246 0.724950
vt 0.951045 0.865174
vt 0.884773 0.854044
vt 0.333431 0.407083
vt 0.298624 0.302568
vt 0.383294 0.314769
vt 0.387177 0.393537
vt 0.772120 0.795032
vt 0.689488 0.791563
vt 0.677585 0.749415
vt 0.739797 0.747055
vt 0.773895 0.835424
vt 0.698289 0.822728
vt 0.337139 0.762961
vt 0.305974 0.764449
vt 0.228564 0.931740
vt 0.282409 0.934904
vt 0.433181 0.196869
vt 0.435179 0.166042
vt 0.333043 0.937879
vt 0.379287 0.760948
vt 0.008593 0.628154
vt 0.194406 0.642808
vt 0.010469 0.472968
vt 0.177759 0.567203
vt 0.268757 0.267204
vt 0.308323 0.005000
vt 0.463824 0.006138
vt 0.408980 0.234549
vt 0.244525 0.262020
vt 0.288102 0.005943
vt 0.792691 0.225404
vt 0.500762 0.136684
vt 0.793525 0.262184
vt 0.508994 0.162252
vt 0.526953 0.548046
vt 0.603041 0.551994
vt 0.555351 0.267463
vt 0.524708 0.265645
vt 0.454336 0.544279
vt 0.440695 0.752684
vt 0.538068 0.752305
vt 0.329055 0.448093
vt 0.335178 0.417011
vt 0.368822 0.425010
vt 0.364863 0.451452
vt 0.295597 0.439354
vt 0.303019 0.409131
vt 0.269689 0.433511
vt 0.277451 0.402867
vt 0.286654 0.482292
vt 0.280498 0.522719
vt 0.251299 0.520194
vt 0.258404 0.476577
vt 0.321087 0.488691
vt 0.315420 0.525734
vt 0.357956 0.493615
vt 0.352838 0.528975
vt 0.020766 0.009632
vt 0.730143 0.469010
vt 0.739792 0.519730
vt 0.694917 0.538167
vt 0.676397 0.482557
vt 0.289191 0.270245
vt 0.375261 0.282808
vt 0.735572 0.541054
vt 0.689733 0.563986
vt 0.005000 0.007154
vt 0.481642 0.262666
vt 0.371025 0.539956
vt 0.319505 0.753157
vt 0.438025 0.263795
vt 0.636924 0.751919
vt 0.650976 0.751239
vt 0.620742 0.551159
vt 0.668031 0.752433
vt 0.685236 0.578823
vt 0.820354 0.221266
vt 0.820358 0.139699
vt 0.994065 0.020527
vt 0.995000 0.005000
vt 0.992938 0.079269
vt 0.993965 0.260479
vt 0.632157 0.345718
# 120 texture coordinates

vn -0.067461 0.791133 0.607912
vn 0.376341 0.889208 0.260148
vn 0.957727 0.267430 -0.106020
vn 0.707539 0.681820 -0.185769
vn 0.700366 0.710103 0.072399
vn 0.153872 0.503196 -0.850363
vn 0.186671 0.753478 -0.630417
vn 0.925583 0.361747 -0.111519
vn 0.679193 0.703861 -0.208030
vn 0.619754 0.551070 -0.558772
vn 0.517209 0.705152 -0.485032
vn 0.619464 0.419423 0.663588
vn -0.025538 0.323593 -0.945852
vn -0.076350 0.320745 -0.944084
vn -0.024391 0.300214 -0.953560
vn -0.068921 0.295690 -0.952794
vn 0.548588 0.771369 0.322555
vn 0.008362 0.790271 0.612701
vn -0.044461 0.989091 -0.140434
vn -0.118448 0.959523 -0.255512
vn -0.150808 0.701925 -0.696102
vn -0.084036 0.714552 -0.694517
vn 0.004579 0.974213 -0.225583
vn 0.057282 0.990804 -0.122578
vn 0.094143 0.792085 0.603107
vn 0.128217 0.407833 0.904009
vn 0.517846 0.788523 -0.331763
vn 0.678742 0.682399 -0.271369
vn 0.591648 0.585170 0.554553
vn 0.378121 0.360043 0.852874
vn 0.360431 0.888037 0.285447
vn -0.080899 0.758966 0.646085
vn 0.218590 0.363074 0.905757
vn -0.361977 0.204026 0.909586
vn -0.280799 0.386331 0.878578
vn -0.665128 0.720361 -0.196686
vn 0.636033 0.748986 -0.185693
vn -0.640859 0.767252 -0.025003
vn 0.666758 0.735475 -0.120463
vn -0.601677 0.351512 -0.717234
vn 0.569253 0.373915 -0.732215
vn -0.567448 0.232362 0.789943
vn -0.730311 0.289000 0.618971
vn -0.956227 0.176756 0.233209
vn -0.847677 0.520903 0.100515
vn -0.665276 0.459649 -0.588329
vn -0.685750 0.116442 -0.718462
vn -0.674563 0.262276 -0.690055
vn -0.825986 0.438059 -0.354754
vn -0.847441 0.437508 0.300717
vn -0.591497 0.243104 0.768786
vn -0.474880 0.703525 0.528717
vn 0.595139 0.699810 0.395065
vn 0.563767 0.810125 0.160822
vn 0.829250 0.486899 -0.274360
vn 0.633724 0.585875 -0.505118
vn 0.799424 0.498656 -0.335057
vn 0.629939 0.464246 -0.622617
vn 0.563456 0.377207 -0.735005
vn -0.568732 0.344918 -0.746710
vn -0.502088 0.628693 -0.593846
vn 0.413042 0.691687 -0.592423
# 62 normals

usemtl Default
f 35/1/35 32/2/32 31/3/31 1/4/1
f 35/5/35 1/6/1 25/7/25 18/8/18
f 51/9/51 35/5/35 18/8/18 52/10/52
f 50/11/50 51/12/51 52/13/52 38/14/38
f 57/15/57 37/16/37 39/17/39 55/18/55
f 57/15/57 41/19/41 62/20/62 37/16/37
f 2/21/2 55/18/55 39/17/39 53/22/53
f 25/7/25 1/6/1 2/23/2 53/24/53
f 31/3/31 54/25/54 2/26/2 1/4/1
f 26/27/26 32/28/32 35/29/35
f 28/30/28 55/31/55 2/26/2 54/25/54
f 4/32/4 17/33/17 12/34/12 3/35/3
f 5/36/5 29/37/29 17/38/17 4/39/4
f 5/40/5 27/41/27 28/42/28 54/43/54
f 27/44/27 7/45/7 57/46/57 56/47/56
f 9/48/9 11/49/11 7/45/7 27/44/27
f 7/50/7 11/51/11 10/52/10 6/53/6
f 41/19/41 57/15/57 58/54/58 59/55/59
f 6/53/6 58/56/58 57/57/57 7/50/7
f 4/39/4 9/48/9 27/44/27 5/36/5
f 3/35/3 8/58/8 9/59/9 4/32/4
f 8/58/8 10/60/10 11/61/11 9/59/9
f 29/62/29 30/63/30 12/64/12 17/65/17
f 26/66/26 33/67/33 30/63/30 29/62/29
f 49/68/49 50/11/50 38/14/38 36/69/36
f 40/70/40 49/68/49 36/69/36 61/71/61
f 14/72/14 40/73/40 61/74/61 21/75/21
f 14/72/14 16/76/16 15/77/15 13/78/13
f 19/79/19 38/80/38 52/81/52 18/82/18
f 20/83/20 36/84/36 38/80/38 19/79/19
f 21/85/21 61/86/61 36/84/36 20/83/20
f 23/87/23 37/88/37 62/89/62 22/90/22
f 24/91/24 39/92/39 37/88/37 23/87/23
f 25/93/25 53/94/53 39/92/39 24/91/24
f 35/5/35 34/95/34 33/67/33 26/66/26
f 54/96/54 31/97/31 29/98/29 5/99/5
f 27/41/27 56/100/56 55/101/55 28/42/28
f 29/98/29 31/97/31 32/102/32 26/103/26
f 42/104/42 34/95/34 35/5/35 51/9/51
f 21/75/21 22/105/22 16/76/16 14/72/14
f 16/76/16 41/106/41 59/107/59 15/77/15
f 22/105/22 62/108/62 41/106/41 16/76/16
f 20/83/20 23/87/23 22/90/22 21/85/21
f 19/79/19 24/91/24 23/87/23 20/83/20
f 60/109/60 48/110/48 49/111/49 40/73/40
f 49/111/49 48/110/48 47/112/47 46/113/46
f 13/78/13 60/109/60 40/73/40 14/72/14
f 50/11/50 49/68/49 46/114/46 45/115/45
f 51/12/51 50/11/50 43/116/43 42/117/42
f 45/115/45 44/118/44 43/116/43 50/11/50
f 45/115/45 46/114/46 47/119/47 44/118/44
f 18/82/18 25/93/25 24/91/24 19/79/19
f 55/18/55 56/120/56 57/15/57

# 53 faces
