# Blender v2.78 (sub 0) OBJ File: '15.blend'
# www.blender.org
mtllib Mushroom_01.mtl
g mushroom_Circle.006
v -0.037537 0.634999 -1.194896
v -0.969888 0.664589 -0.809839
v -1.356081 0.736025 0.119771
v -0.969888 0.807462 1.049381
v -0.037537 0.837052 1.434438
v 0.894814 0.807462 1.049381
v 1.281006 0.736025 0.119771
v 0.894814 0.664589 -0.809839
v -0.037537 1.230165 -1.162761
v -0.764620 1.295244 -0.868709
v -1.065788 1.452361 -0.158804
v -0.764620 1.609478 0.551100
v -0.037537 1.674558 0.845152
v 0.689546 1.609478 0.551100
v 0.990714 1.452361 -0.158804
v 0.689546 1.295244 -0.868709
v -0.037537 3.032322 -1.332633
v -0.634977 3.012494 -1.085961
v -0.882445 2.964627 -0.490441
v -0.634977 2.916759 0.105078
v -0.037537 2.896932 0.351751
v 0.559903 2.916759 0.105078
v 0.807371 2.964627 -0.490441
v 0.559903 3.012494 -1.085961
v -0.037537 4.987211 -0.911256
v -0.563386 4.908017 -0.709336
v -0.781200 4.716827 -0.221859
v -0.563386 4.525639 0.265618
v -0.037537 4.446445 0.467537
v 0.488312 4.525639 0.265617
v 0.706126 4.716827 -0.221859
v 0.488312 4.908017 -0.709336
v -0.037537 6.305740 -0.433097
v -0.469512 6.282952 -0.255624
v -0.648442 6.227934 0.172833
v -0.469512 6.172917 0.601290
v -0.037537 6.150129 0.778763
v 0.394438 6.172917 0.601290
v 0.573368 6.227934 0.172833
v 0.394438 6.282952 -0.255624
v -0.037537 7.435905 -0.269427
v -0.437262 7.429836 -0.103967
v -0.602834 7.415181 0.295490
v -0.437262 7.400527 0.694946
v -0.037537 7.394456 0.860407
v 0.362188 7.400527 0.694946
v 0.527760 7.415181 0.295490
v 0.362188 7.429836 -0.103967
v -0.037537 7.369185 -1.183925
v -1.028272 7.344587 -0.774287
v -1.438648 7.285208 0.214667
v -1.028272 7.225828 1.203621
v -0.037537 7.201231 1.613261
v 0.953198 7.225828 1.203621
v 1.363574 7.285208 0.214667
v 0.953198 7.344587 -0.774287
v -0.037537 7.254896 -2.705838
v -2.232358 7.171684 -1.800529
v -3.141484 6.970801 0.385080
v -2.232358 6.769919 2.570689
v -0.037537 6.686711 3.476000
v 2.157285 6.769919 2.570689
v 3.066410 6.970801 0.385080
v 2.157285 7.171684 -1.800529
v -0.015262 7.218780 -3.930637
v -3.055061 7.103533 -2.676797
v -4.314188 6.825312 0.350244
v -3.055061 6.547094 3.377284
v -0.015262 6.431852 4.631128
v 3.024539 6.547094 3.377284
v 4.283664 6.825312 0.350244
v 3.024539 7.103533 -2.676797
v 0.017122 7.687696 -4.403964
v -3.372366 7.559191 -3.005886
v -4.776340 7.248965 0.369378
v -3.372366 6.938742 3.744641
v 0.017123 6.810243 5.142723
v 3.406614 6.938742 3.744641
v 4.810584 7.248965 0.369378
v 3.406614 7.559191 -3.005886
v -0.026498 8.207661 -3.995293
v -3.131345 8.089948 -2.714623
v -4.417415 7.805774 0.377192
v -3.131345 7.521604 3.469006
v -0.026498 7.403894 4.749680
v 3.078349 7.521604 3.469006
v 4.364418 7.805774 0.377192
v 3.078349 8.089948 -2.714623
v -0.112358 8.626518 -2.742917
v -2.356271 8.541445 -1.817360
v -3.285731 8.336069 0.417136
v -2.356271 8.130694 2.651631
v -0.112358 8.045624 3.577190
v 2.131557 8.130694 2.651631
v 3.061015 8.336069 0.417136
v 2.131557 8.541445 -1.817360
v 0.079866 9.371519 -1.703754
v -1.324491 9.318275 -1.124492
v -1.906195 9.189741 0.273970
v -1.324491 9.061208 1.672432
v 0.079866 9.007965 2.251696
v 1.484224 9.061208 1.672432
v 2.065927 9.189741 0.273970
v 1.484224 9.318275 -1.124492
v 0.087714 9.792187 -0.786339
v -0.574474 9.767082 -0.513203
v -0.848761 9.706474 0.146206
v -0.574474 9.645867 0.805614
v 0.087714 9.620763 1.078750
v 0.749902 9.645867 0.805614
v 1.024189 9.706474 0.146206
v 0.749902 9.767082 -0.513203
v 0.112522 9.902209 -0.279833
v -0.185755 9.890901 -0.156801
v -0.309306 9.863601 0.140224
v -0.185755 9.836303 0.437249
v 0.112522 9.824992 0.560282
v 0.410799 9.836303 0.437249
v 0.534349 9.863601 0.140224
v 0.410799 9.890901 -0.156801
v -0.095941 9.908651 0.059712
v 0.202376 9.919960 -0.063336
v 0.027618 9.881352 0.356733
v 0.325920 9.892660 0.233691
v 1.085003 8.897133 1.749030
v 0.537902 8.993703 1.824764
v 0.150632 8.815881 2.189156
v 0.150049 8.467835 2.628751
v 0.536496 8.153442 2.886039
v 1.083597 8.056871 2.810305
v 1.470867 8.234692 2.445913
v 1.471450 8.582740 2.006318
v -2.684647 8.468497 0.487554
v 1.454428 8.474346 2.594732
v 1.111455 8.316863 2.917443
v 0.626934 8.402387 2.984515
v 0.284690 8.680818 2.756656
v 0.285206 8.989054 2.367344
v 1.112700 9.061012 1.977562
v 0.628179 9.146535 2.044632
v 1.454944 8.782579 2.205420
v 0.869817 8.731699 2.481038
v -3.178654 8.209120 0.432235
v -3.508658 7.908272 0.771306
v -3.481348 7.742190 1.306144
v -3.112719 7.808160 1.723448
v -2.618711 8.067537 1.778765
v -2.288708 8.368382 1.439694
v -2.316018 8.534465 0.904857
v -2.485449 8.567575 1.477978
v -2.777705 8.301142 1.778265
v -3.215206 8.071432 1.729274
v -3.541669 8.013011 1.359703
v -3.565856 8.160093 0.886042
v -2.836099 8.656237 0.634746
v -3.273599 8.426528 0.585755
v -2.509635 8.714661 1.004317
v -3.025653 8.363834 1.182010
v 1.800087 8.256567 -2.587727
v 1.819552 8.100749 -2.948280
v 1.559880 8.029948 -3.235009
v 1.173182 8.085638 -3.279954
v 0.885981 8.235197 -3.056785
v 0.866516 8.391014 -2.696231
v 1.126189 8.461815 -2.409502
v 1.512886 8.406123 -2.364557
v 1.184138 8.608826 -2.529132
v 0.954168 8.546124 -2.783064
v 0.971406 8.408129 -3.102376
v 1.225757 8.275677 -3.300018
v 1.568222 8.226356 -3.260214
v 1.780953 8.427052 -2.686970
v 1.798192 8.289059 -3.006281
v 1.526604 8.559505 -2.489328
v 1.376180 8.417591 -2.894673
v -0.037537 0.174595 -1.064149
v -0.952103 0.174595 -0.685323
v -1.330928 0.174595 0.229243
v -0.952103 0.174595 1.143809
v -0.037537 0.174595 1.522634
v 0.877029 0.174595 1.143808
v 1.255855 0.174595 0.229243
v 0.877029 0.174595 -0.685323
v -0.648630 0.012482 -0.330180
v -0.037537 0.015289 -0.583242
v -0.901753 0.005708 0.280765
v -0.648630 -0.001068 0.891711
v -0.037537 -0.003873 1.144773
v 0.573556 -0.001068 0.891710
v 0.826679 0.005708 0.280765
v 0.573556 0.012482 -0.330180
v -0.037537 -0.055306 0.280765
vn 0.6012 -0.7334 -0.3175
vn 0.2620 -0.7838 0.5631
vn -0.6565 -0.7255 0.2064
vn -0.2584 -0.6774 -0.6888
vn 0.2510 -0.6962 -0.6725
vn 0.6119 -0.7693 0.1838
vn -0.2698 -0.7659 0.5836
vn -0.6449 -0.6886 -0.3316
vn -0.8035 0.5220 -0.2863
vn 0.7524 0.6065 -0.2572
vn 0.3029 0.5415 0.7842
vn -0.7827 0.4993 0.3715
vn -0.3328 0.5653 -0.7548
vn 0.3241 0.6012 -0.7304
vn 0.7312 0.5809 0.3576
vn -0.3118 0.5085 0.8026
vn 0.1606 0.9393 -0.3031
vn 0.3723 0.8972 0.2373
vn -0.1665 0.8598 0.4828
vn -0.4199 0.9029 -0.0917
vn 0.3741 0.9247 -0.0706
vn 0.1588 0.8709 0.4650
vn -0.4177 0.8724 0.2539
vn -0.1685 0.9313 -0.3230
vn -0.4845 0.8295 0.2778
vn -0.2505 0.8082 -0.5330
vn 0.2734 0.7571 -0.5933
vn 0.5917 0.7424 0.3143
vn -0.1990 0.8065 0.5567
vn -0.5315 0.8347 -0.1444
vn 0.6541 0.7281 -0.2052
vn 0.2156 0.7751 0.5940
vn 0.4523 0.8855 -0.1068
vn 0.1558 0.8751 0.4582
vn -0.4010 0.8819 0.2479
vn -0.2016 0.8910 -0.4068
vn 0.2027 0.8895 -0.4096
vn 0.4056 0.8793 0.2495
vn -0.1551 0.8760 0.4566
vn -0.4468 0.8886 -0.1042
vn -0.1131 0.9263 0.3595
vn -0.2798 0.9596 -0.0282
vn 0.3056 0.9513 -0.0397
vn 0.1172 0.9221 0.3688
vn -0.2720 0.9414 0.1997
vn -0.1214 0.9712 -0.2050
vn 0.1260 0.9681 -0.2165
vn 0.2964 0.9319 0.2089
vn 0.0630 0.9683 0.2418
vn -0.1490 0.9771 0.1518
vn 0.0856 0.9895 -0.1167
vn 0.0000 0.9958 0.0915
vn 0.1504 0.9882 0.0282
vn -0.0610 0.9965 -0.0564
vn -0.2049 0.9788 0.0047
vn -0.0875 0.9500 0.2996
vn 0.2134 0.9608 0.1770
vn 0.8523 0.4303 0.2973
vn -0.3433 0.5487 0.7623
vn -0.8869 0.2253 -0.4032
vn 0.8869 0.2253 -0.4032
vn 0.3433 0.5487 0.7623
vn -0.8523 0.4303 0.2973
vn -0.3763 0.0428 -0.9255
vn 0.3763 0.0428 -0.9255
vn 0.9210 0.0231 -0.3890
vn 0.3653 0.3405 0.8664
vn -0.9089 0.2016 0.3651
vn -0.3791 -0.0874 -0.9212
vn 0.3791 -0.0874 -0.9212
vn 0.9089 0.2016 0.3651
vn -0.3653 0.3405 0.8664
vn -0.9210 0.0231 -0.3890
vn -0.3754 -0.0723 0.9240
vn -0.9218 0.1095 -0.3719
vn 0.9218 0.1095 -0.3719
vn 0.3754 -0.0723 0.9240
vn -0.9190 -0.0031 0.3942
vn -0.3785 0.1946 -0.9049
vn 0.3785 0.1946 -0.9049
vn 0.9190 -0.0031 0.3942
vn 0.3783 0.3144 -0.8706
vn 0.9197 -0.0246 0.3918
vn -0.3784 -0.1652 0.9108
vn -0.9197 0.1755 -0.3512
vn 0.9197 0.1755 -0.3512
vn 0.3784 -0.1652 0.9108
vn -0.9197 -0.0246 0.3918
vn -0.3783 0.3144 -0.8706
vn 0.3823 -0.0604 0.9221
vn -0.9234 -0.0046 0.3838
vn -0.3818 0.1321 -0.9148
vn 0.3818 0.1321 -0.9148
vn 0.9234 -0.0046 0.3838
vn -0.3823 -0.0604 0.9221
vn -0.9229 0.0752 -0.3777
vn 0.9229 0.0752 -0.3777
vn -0.4705 0.8356 0.2835
vn 0.2189 0.7649 0.6059
vn -0.6036 -0.0939 0.7918
vn -0.6021 0.7499 -0.2740
vn 0.9983 0.0454 0.0372
vn 0.0594 -0.3858 0.9207
vn -0.8776 0.3765 0.2969
vn 0.0614 0.8076 -0.5866
vn 0.7243 0.5158 -0.4576
vn 0.7229 -0.3281 0.6082
vn -0.6955 -0.2853 0.6595
vn -0.7617 0.1173 -0.6372
vn 0.7172 0.6751 0.1730
vn -0.0829 -0.0543 0.9951
vn -0.9766 -0.2142 -0.0167
vn -0.1766 0.5151 -0.8387
vn 0.4360 0.7462 -0.5031
vn 0.5022 0.3435 0.7936
vn 0.1751 0.9072 -0.3826
vn -0.5864 0.0771 -0.8063
vn 0.7503 -0.1154 -0.6510
vn 0.0007 0.6310 0.7758
vn -0.8969 0.3863 -0.2154
vn 0.0959 -0.1307 -0.9868
vn 0.9935 0.1140 0.0044
vn 0.6830 0.4232 0.5953
vn -0.6537 0.6157 0.4400
vn 0.9236 0.0320 0.3819
vn -0.3809 0.1239 0.9163
vn -0.9185 -0.1213 -0.3763
vn 0.9185 -0.1213 -0.3763
vn 0.3809 0.1239 0.9163
vn -0.9236 0.0320 0.3819
vn -0.3737 -0.2471 -0.8940
vn 0.3737 -0.2471 -0.8940
vn 0.3395 -0.9294 -0.1448
vn -0.0704 -0.9967 -0.0402
vn 0.1745 -0.8919 0.4173
vn -0.3852 -0.9096 0.1555
vn -0.1287 -0.9404 -0.3148
vn 0.1287 -0.9404 -0.3148
vn 0.3852 -0.9096 0.1555
vn -0.1745 -0.8919 0.4173
vn -0.3395 -0.9294 -0.1448
vn 0.0704 -0.9967 -0.0402
vn 0.0292 -0.9978 0.0594
vn -0.0704 -0.9974 0.0181
vn -0.0291 -0.9963 -0.0814
vn 0.0291 -0.9963 -0.0814
vn 0.0704 -0.9974 0.0181
vn -0.0292 -0.9978 0.0594
vn -0.1453 -0.9894 0.0075
vn -0.0798 -0.9664 -0.2445
vn 0.1717 -0.9774 -0.1233
vn 0.0532 -0.9957 0.0756
vn -0.0532 -0.9957 0.0756
vn -0.1717 -0.9774 -0.1233
vn 0.0798 -0.9664 -0.2445
vn 0.1453 -0.9894 0.0075
vn -0.1767 -0.9723 -0.1531
vn 0.0752 -0.9624 -0.2611
vn 0.1684 -0.9857 -0.0108
vn -0.1684 -0.9857 -0.0108
vn -0.0752 -0.9624 -0.2611
vn 0.1767 -0.9723 -0.1531
vn 0.0669 -0.9945 0.0805
vn -0.0669 -0.9945 0.0805
vn 0.0504 -0.9983 0.0304
vn -0.0496 -0.9984 0.0285
vn -0.1215 -0.9826 -0.1408
vn 0.0522 -0.9750 -0.2161
vn 0.1242 -0.9915 -0.0395
vn -0.1197 -0.9919 -0.0414
vn -0.0514 -0.9754 -0.2142
vn 0.1260 -0.9817 -0.1427
usemtl F44336
s off
f 71//1 72//1 80//1 79//1
f 69//2 70//2 78//2 77//2
f 67//3 68//3 76//3 75//3
f 65//4 66//4 74//4 73//4
f 72//5 65//5 73//5 80//5
f 70//6 71//6 79//6 78//6
f 68//7 69//7 77//7 76//7
f 66//8 67//8 75//8 74//8
f 74//9 75//9 83//9 82//9
f 79//10 80//10 88//10 87//10
f 77//11 78//11 86//11 85//11
f 75//12 76//12 84//12 83//12
f 73//13 74//13 82//13 81//13
f 80//14 73//14 81//14 88//14
f 78//15 79//15 87//15 86//15
f 76//16 77//16 85//16 84//16
f 88//17 81//17 89//17 96//17
f 86//18 87//18 95//18 94//18
f 84//19 85//19 93//19 92//19
f 82//20 83//20 91//20 90//20
f 87//21 88//21 96//21 95//21
f 85//22 86//22 94//22 93//22
f 83//23 84//23 92//23 91//23
f 81//24 82//24 90//24 89//24
f 91//25 92//25 100//25 99//25
f 89//26 90//26 98//26 97//26
f 96//27 89//27 97//27 104//27
f 94//28 95//28 103//28 102//28
f 92//29 93//29 101//29 100//29
f 90//30 91//30 99//30 98//30
f 95//31 96//31 104//31 103//31
f 93//32 94//32 102//32 101//32
f 103//33 104//33 112//33 111//33
f 101//34 102//34 110//34 109//34
f 99//35 100//35 108//35 107//35
f 97//36 98//36 106//36 105//36
f 104//37 97//37 105//37 112//37
f 102//38 103//38 111//38 110//38
f 100//39 101//39 109//39 108//39
f 98//40 99//40 107//40 106//40
f 108//41 109//41 117//41 116//41
f 106//42 107//42 115//42 114//42
f 111//43 112//43 120//43 119//43
f 109//44 110//44 118//44 117//44
f 107//45 108//45 116//45 115//45
f 105//46 106//46 114//46 113//46
f 112//47 105//47 113//47 120//47
f 110//48 111//48 119//48 118//48
f 117//49 118//49 124//49 123//49
f 116//50 123//50 121//50 115//50
f 113//51 122//51 120//51
f 121//52 123//52 124//52 122//52
f 122//53 124//53 119//53 120//53
f 122//54 113//54 114//54 121//54
f 121//55 114//55 115//55
f 123//56 116//56 117//56
f 124//57 118//57 119//57
usemtl FFFFFF
f 6//58 7//58 15//58 14//58
f 4//59 5//59 13//59 12//59
f 2//60 3//60 11//60 10//60
f 7//61 8//61 16//61 15//61
f 5//62 6//62 14//62 13//62
f 3//63 4//63 12//63 11//63
f 1//64 2//64 10//64 9//64
f 8//65 1//65 9//65 16//65
f 15//66 16//66 24//66 23//66
f 13//67 14//67 22//67 21//67
f 11//68 12//68 20//68 19//68
f 9//69 10//69 18//69 17//69
f 16//70 9//70 17//70 24//70
f 14//71 15//71 23//71 22//71
f 12//72 13//72 21//72 20//72
f 10//73 11//73 19//73 18//73
f 20//74 21//74 29//74 28//74
f 18//75 19//75 27//75 26//75
f 23//76 24//76 32//76 31//76
f 21//77 22//77 30//77 29//77
f 19//78 20//78 28//78 27//78
f 17//79 18//79 26//79 25//79
f 24//80 17//80 25//80 32//80
f 22//81 23//81 31//81 30//81
f 32//82 25//82 33//82 40//82
f 30//83 31//83 39//83 38//83
f 28//84 29//84 37//84 36//84
f 26//85 27//85 35//85 34//85
f 31//86 32//86 40//86 39//86
f 29//87 30//87 38//87 37//87
f 27//88 28//88 36//88 35//88
f 25//89 26//89 34//89 33//89
f 37//90 38//90 46//90 45//90
f 35//91 36//91 44//91 43//91
f 33//92 34//92 42//92 41//92
f 40//93 33//93 41//93 48//93
f 38//94 39//94 47//94 46//94
f 36//95 37//95 45//95 44//95
f 34//96 35//96 43//96 42//96
f 39//97 40//97 48//97 47//97
f 151//98 150//98 158//98
f 157//98 155//98 158//98
f 155//98 156//98 158//98
f 154//98 153//98 158//98
f 152//98 151//98 158//98
f 150//98 157//98 158//98
f 156//98 154//98 158//98
f 153//98 152//98 158//98
f 137//99 136//99 142//99
f 140//99 138//99 142//99
f 134//99 141//99 142//99
f 136//99 135//99 142//99
f 138//99 137//99 142//99
f 139//99 140//99 142//99
f 141//99 139//99 142//99
f 135//99 134//99 142//99
f 128//100 129//100 136//100 137//100
f 126//101 127//101 138//101 140//101
f 131//102 132//102 141//102 134//102
f 129//103 130//103 135//103 136//103
f 127//104 128//104 137//104 138//104
f 125//105 126//105 140//105 139//105
f 132//106 125//106 139//106 141//106
f 130//107 131//107 134//107 135//107
f 145//108 146//108 152//108 153//108
f 143//109 144//109 154//109 156//109
f 148//110 149//110 157//110 150//110
f 146//111 147//111 151//111 152//111
f 144//112 145//112 153//112 154//112
f 133//113 143//113 156//113 155//113
f 149//114 133//114 155//114 157//114
f 147//115 148//115 150//115 151//115
f 168//116 167//116 175//116
f 174//116 172//116 175//116
f 172//116 173//116 175//116
f 171//116 170//116 175//116
f 169//116 168//116 175//116
f 167//116 174//116 175//116
f 173//116 171//116 175//116
f 170//116 169//116 175//116
f 162//117 163//117 169//117 170//117
f 160//118 161//118 171//118 173//118
f 165//119 166//119 174//119 167//119
f 163//120 164//120 168//120 169//120
f 161//121 162//121 170//121 171//121
f 159//122 160//122 173//122 172//122
f 166//123 159//123 172//123 174//123
f 164//124 165//124 167//124 168//124
f 7//125 6//125 181//125 182//125
f 5//126 4//126 179//126 180//126
f 3//127 2//127 177//127 178//127
f 8//128 7//128 182//128 183//128
f 6//129 5//129 180//129 181//129
f 4//130 3//130 178//130 179//130
f 2//131 1//131 176//131 177//131
f 1//132 8//132 183//132 176//132
f 183//133 182//133 190//133 191//133
f 186//134 184//134 192//134
f 181//135 180//135 188//135 189//135
f 179//136 178//136 186//136 187//136
f 177//137 176//137 185//137 184//137
f 176//138 183//138 191//138 185//138
f 182//139 181//139 189//139 190//139
f 180//140 179//140 187//140 188//140
f 178//141 177//141 184//141 186//141
f 191//142 190//142 192//142
f 189//143 188//143 192//143
f 187//144 186//144 192//144
f 184//145 185//145 192//145
f 185//146 191//146 192//146
f 190//147 189//147 192//147
f 188//148 187//148 192//148
usemtl FFCC88
f 47//149 48//149 56//149 55//149
f 45//150 46//150 54//150 53//150
f 43//151 44//151 52//151 51//151
f 41//152 42//152 50//152 49//152
f 48//153 41//153 49//153 56//153
f 46//154 47//154 55//154 54//154
f 44//155 45//155 53//155 52//155
f 42//156 43//156 51//156 50//156
f 54//157 55//157 63//157 62//157
f 52//158 53//158 61//158 60//158
f 50//159 51//159 59//159 58//159
f 55//160 56//160 64//160 63//160
f 53//161 54//161 62//161 61//161
f 51//162 52//162 60//162 59//162
f 49//163 50//163 58//163 57//163
f 56//164 49//164 57//164 64//164
f 57//165 58//165 66//165 65//165
f 64//166 57//166 65//166 72//166
f 62//167 63//167 71//167 70//167
f 60//168 61//168 69//168 68//168
f 58//169 59//169 67//169 66//169
f 63//170 64//170 72//170 71//170
f 61//171 62//171 70//171 69//171
f 59//172 60//172 68//172 67//172
