# Alias OBJ Model File
# Exported from SketchUp, (c) 2000-2012 Trimble Navigation Limited
# File units = inches

mtllib BasicCurve.mtl

g Mesh1 Model

usemtl Color_H05
v 96.6243 82.9375 81.4552
vt -96.6243 -81.4552
vn 0 -1 -0
v 106.934 82.9375 69.3038
vt -106.934 -69.3038
v 113.077 82.9375 81.2626
vt -113.077 -81.2626
v 115.915 82.9375 94.4038
vt -115.915 -94.4038
v 115.255 82.9375 107.832
vt -115.255 -107.832
v 111.143 82.9375 120.632
vt -111.143 -120.632
v 103.857 82.9375 131.931
vt -103.857 -131.931
v 93.8958 82.9375 140.959
vt -93.8958 -140.959
v 81.937 82.9375 147.102
vt -81.937 -147.102
v 68.7958 82.9375 149.94
vt -68.7958 -149.94
v 55.3678 82.9375 149.28
vt -55.3678 -149.28
v 42.568 82.9375 145.168
vt -42.568 -145.168
v 52.8777 82.9375 133.016
vt -52.8777 -133.016
v 57.721 82.9375 136.733
vt -57.721 -136.733
v 65.9356 82.9375 140.135
vt -65.9356 -140.135
v 74.751 82.9375 141.296
vt -74.751 -141.296
v 83.5664 82.9375 140.135
vt -83.5664 -140.135
v 91.7811 82.9375 136.733
vt -91.7811 -136.733
v 98.8352 82.9375 131.32
vt -98.8352 -131.32
v 104.248 82.9375 124.266
vt -104.248 -124.266
v 107.651 82.9375 116.051
vt -107.651 -116.051
v 108.811 82.9375 107.236
vt -108.811 -107.236
v 107.651 82.9375 98.4204
vt -107.651 -98.4204
v 104.248 82.9375 90.2058
vt -104.248 -90.2058
v 98.8352 82.9375 83.1517
vt -98.8352 -83.1517
f 1/1/1 2/2/1 3/3/1 4/4/1 5/5/1 6/6/1 7/7/1 8/8/1 9/9/1 10/10/1 11/11/1 12/12/1 13/13/1 14/14/1 15/15/1 16/16/1 17/17/1 18/18/1 19/19/1 20/20/1 21/21/1 22/22/1 23/23/1 24/24/1 25/25/1 

vn -0 1 0
f 25/25/2 24/24/2 23/23/2 22/22/2 21/21/2 20/20/2 19/19/2 18/18/2 17/17/2 16/16/2 15/15/2 14/14/2 13/13/2 12/12/2 11/11/2 10/10/2 9/9/2 8/8/2 7/7/2 6/6/2 5/5/2 4/4/2 3/3/2 2/2/2 1/1/2 

usemtl Color_K05
vt 126.136 82.9375
vn -0.707107 0 0.707107
vt 135.027 82.9375
vn -0.866025 0 0.5
v 104.248 147.188 90.2058
vt 135.027 147.188
v 98.8352 147.188 83.1517
vt 126.136 147.188
f 25/26/3 24/27/4 26/28/4 27/29/3 

vn 0.707107 -0 -0.707107
vn 0.866025 -0 -0.5
f 27/29/5 26/28/6 24/27/6 25/26/5 

usemtl Color_H05
v 106.934 147.188 69.3038
vt 106.934 -69.3038
vn 0 1 -0
v 96.6243 147.188 81.4552
vt 96.6243 -81.4552
vt 98.8352 -83.1517
vt 104.248 -90.2058
v 107.651 147.188 98.4204
vt 107.651 -98.4204
v 108.811 147.188 107.236
vt 108.811 -107.236
v 107.651 147.188 116.051
vt 107.651 -116.051
v 104.248 147.188 124.266
vt 104.248 -124.266
v 98.8352 147.188 131.32
vt 98.8352 -131.32
v 91.7811 147.188 136.733
vt 91.7811 -136.733
v 83.5664 147.188 140.135
vt 83.5664 -140.135
v 74.751 147.188 141.296
vt 74.751 -141.296
v 65.9356 147.188 140.135
vt 65.9356 -140.135
v 57.721 147.188 136.733
vt 57.721 -136.733
v 52.8777 147.188 133.016
vt 52.8777 -133.016
v 42.568 147.188 145.168
vt 42.568 -145.168
v 55.3678 147.188 149.28
vt 55.3678 -149.28
v 68.7958 147.188 149.94
vt 68.7958 -149.94
v 81.937 147.188 147.102
vt 81.937 -147.102
v 93.8958 147.188 140.959
vt 93.8958 -140.959
v 103.857 147.188 131.931
vt 103.857 -131.931
v 111.143 147.188 120.632
vt 111.143 -120.632
v 115.255 147.188 107.832
vt 115.255 -107.832
v 115.915 147.188 94.4038
vt 115.915 -94.4038
v 113.077 147.188 81.2626
vt 113.077 -81.2626
f 28/30/7 29/31/7 27/32/7 26/33/7 30/34/7 31/35/7 32/36/7 33/37/7 34/38/7 35/39/7 36/40/7 37/41/7 38/42/7 39/43/7 40/44/7 41/45/7 42/46/7 43/47/7 44/48/7 45/49/7 46/50/7 47/51/7 48/52/7 49/53/7 50/54/7 

vn -0 -1 0
f 50/54/8 49/53/8 48/52/8 47/51/8 46/50/8 45/49/8 44/48/8 43/47/8 42/46/8 41/45/8 40/44/8 39/43/8 38/42/8 37/41/8 36/40/8 35/39/8 34/38/8 33/37/8 32/36/8 31/35/8 30/34/8 26/33/8 27/32/8 29/31/8 28/30/8 

usemtl Color_K05
vt -116.747 82.9375
vn 0.996655 0 -0.0817202
vt -103.303 82.9375
vn 0.941544 0 -0.336889
vt -103.303 147.188
vt -116.747 147.188
f 4/55/9 3/56/10 50/57/10 49/58/9 

vn -0.996655 -0 0.0817202
vn -0.941544 -0 0.336889
f 49/58/11 50/57/12 3/56/12 4/55/11 

vt -123.95 82.9375
vt -110.505 82.9375
vn 0.889516 0 -0.456903
vt -110.505 147.188
vt -123.95 147.188
f 3/59/10 2/60/13 28/61/13 50/62/10 

vn -0.889516 -0 0.456903
f 50/62/12 28/61/14 2/60/14 3/59/12 

vt -16.3357 82.9375
vn -0.762527 0 -0.646957
vt -0.400004 82.9375
vt -0.400004 147.188
vt -16.3357 147.188
f 2/63/15 1/64/15 29/65/15 28/66/15 

vn 0.762527 -0 0.646957
f 28/66/16 29/65/16 1/64/16 2/63/16 

vt 126.244 82.9375
vn -0.608761 0 0.793353
vt 129.031 82.9375
vt 129.031 147.188
vt 126.244 147.188
f 1/67/17 25/68/3 27/69/3 29/70/17 

vn 0.608761 -0 -0.793353
f 29/70/18 27/69/5 25/68/5 1/67/18 

vt -102.047 82.9375
vn 0.983846 0 0.179018
vt -88.6023 82.9375
vt -88.6023 147.188
vt -102.047 147.188
f 5/71/19 4/72/9 49/73/9 48/74/19 

vn -0.983846 -0 -0.179018
f 48/74/20 49/73/11 4/72/11 5/71/20 

vt -80.8498 82.9375
vn 0.903989 0 0.427556
vt -67.4056 82.9375
vt -67.4056 147.188
vt -80.8498 147.188
f 6/75/21 5/76/19 48/77/19 47/78/21 

vn -0.903989 -0 -0.427556
f 47/78/22 48/77/20 5/76/20 6/75/22 

vt -54.6014 82.9375
vn 0.762527 0 0.646957
vt -41.1572 82.9375
vt -41.1572 147.188
vt -54.6014 147.188
f 7/79/23 6/80/21 47/81/21 46/82/23 

vn -0.762527 -0 -0.646957
f 46/82/24 47/81/22 6/80/22 7/79/24 

vt -25.0901 82.9375
vn 0.569099 0 0.822269
vt -11.6459 82.9375
vt -11.6459 147.188
vt -25.0901 147.188
f 8/83/25 7/84/23 46/85/23 45/86/25 

vn -0.569099 -0 -0.822269
f 45/86/26 46/85/24 7/84/24 8/83/26 

vt 5.67294 82.9375
vn 0.336889 0 0.941544
vt 19.1171 82.9375
vt 19.1171 147.188
vt 5.67294 147.188
f 9/87/27 8/88/25 45/89/25 44/90/27 

vn -0.336889 -0 -0.941544
f 44/90/28 45/89/26 8/88/26 9/87/28 

vt 35.5913 82.9375
vn 0.0817202 0 0.996655
vt 49.0355 82.9375
vt 49.0355 147.188
vt 35.5913 147.188
f 10/91/29 9/92/27 44/93/27 43/94/29 

vn -0.0817202 -0 -0.996655
f 43/94/30 44/93/28 9/92/28 10/91/30 

vt 62.626 82.9375
vn -0.179018 0 0.983846
vt 76.0702 82.9375
vt 76.0702 147.188
vt 62.626 147.188
f 11/95/31 10/96/29 43/97/29 42/98/31 

vn 0.179018 -0 -0.983846
f 42/98/32 43/97/30 10/96/30 11/95/32 

vt 84.9348 82.9375
vn -0.305904 0 0.952062
vt 98.379 82.9375
vt 98.379 147.188
vt 84.9348 147.188
f 12/99/33 11/100/31 42/101/31 41/102/33 

vn 0.305904 -0 -0.952062
f 41/102/34 42/101/32 11/100/32 12/99/34 

vt 67.219 82.9375
vt 83.1547 82.9375
vt 83.1547 147.188
vt 67.219 147.188
f 13/103/15 12/104/15 41/105/15 40/106/15 

f 40/106/16 41/105/16 12/104/16 13/103/16 

vt -129.031 82.9375
vn 0.5 0 -0.866025
vt -122.926 82.9375
vn 0.608761 0 -0.793353
vt -122.926 147.188
vt -129.031 147.188
f 14/107/35 13/108/36 40/109/36 39/110/35 

vn -0.5 -0 0.866025
vn -0.608761 -0 0.793353
f 39/110/37 40/109/38 13/108/38 14/107/37 

vt -114.544 82.9375
vn 0.258819 0 -0.965926
vt -105.653 82.9375
vt -105.653 147.188
vt -114.544 147.188
f 15/111/39 14/112/35 39/113/35 38/114/39 

vn -0.258819 -0 0.965926
f 38/114/40 39/113/37 14/112/37 15/111/40 

vt -92.5544 82.9375
vn 2.09963e-16 0 -1
vt -83.6629 82.9375
vt -83.6629 147.188
vt -92.5544 147.188
f 16/115/41 15/116/39 38/117/39 37/118/41 

vn -2.09963e-16 -0 1
f 37/118/42 38/117/40 15/116/40 16/115/42 

vt -64.5602 82.9375
vn -0.258819 0 -0.965926
vt -55.6687 82.9375
vt -55.6687 147.188
vt -64.5602 147.188
f 17/119/43 16/120/41 37/121/41 36/122/43 

vn 0.258819 -0 0.965926
f 36/122/44 37/121/42 16/120/42 17/119/44 

vt -32.4693 82.9375
vn -0.5 0 -0.866025
vt -23.5778 82.9375
vt -23.5778 147.188
vt -32.4693 147.188
f 18/123/45 17/124/43 36/125/43 35/126/45 

vn 0.5 -0 0.866025
f 35/126/46 36/125/44 17/124/44 18/123/46 

vt 1.53131 82.9375
vn -0.707107 0 -0.707107
vt 10.4228 82.9375
vt 10.4228 147.188
vt 1.53131 147.188
f 19/127/47 18/128/45 35/129/45 34/130/47 

vn 0.707107 -0 0.707107
f 34/130/48 35/129/46 18/128/46 19/127/48 

vt 35.1246 82.9375
vn -0.866025 0 -0.5
vt 44.0161 82.9375
vt 44.0161 147.188
vt 35.1246 147.188
f 20/131/49 19/132/47 34/133/47 33/134/49 

vn 0.866025 -0 0.5
f 33/134/50 34/133/48 19/132/48 20/131/50 

vt 66.0213 82.9375
vn -0.965926 0 -0.258819
vt 74.9127 82.9375
vt 74.9127 147.188
vt 66.0213 147.188
f 21/135/51 20/136/49 33/137/49 32/138/51 

vn 0.965926 -0 0.258819
f 32/138/52 33/137/50 20/136/50 21/135/52 

vt 92.1157 82.9375
vn -1 0 -0
vt 101.007 82.9375
vt 101.007 147.188
vt 92.1157 147.188
f 22/139/53 21/140/51 32/141/51 31/142/53 

vn 1 -0 0
f 31/142/54 32/141/52 21/140/52 22/139/54 

vt 111.63 82.9375
vn -0.965926 0 0.258819
vt 120.521 82.9375
vt 120.521 147.188
vt 111.63 147.188
f 23/143/55 22/144/53 31/145/53 30/146/55 

vn 0.965926 -0 -0.258819
f 30/146/56 31/145/54 22/144/54 23/143/56 

vt 123.233 82.9375
vt 132.125 82.9375
vt 132.125 147.188
vt 123.233 147.188
f 24/147/4 23/148/55 30/149/55 26/150/4 

f 26/150/6 30/149/56 23/148/56 24/147/6 

